<?xml version="1.0" encoding="UTF-8"?>
<svg id="Layer_1" data-name="Layer 1" xmlns="http://www.w3.org/2000/svg" viewBox="0 0 141.71 69.96">
  <path d="M141.44,30.82c-.31-1.32-1.51-2.81-2.61-3.58-3.45-2.39-15.56-7.11-20.06-8.86-9.46-3.67-16.9-2.25-26.83-2.61L54.57.46c-14.84.87-31.3-1.32-45.95-.06C2.81.89-.64,4.54.1,10.49c.29,2.33,3.61,6.43,5.95,6.43h39.52v9.8H6.05c-.61,0-3.95,2.44-4.53,3.22-2.26,3.05-1.97,8.43.83,11.05.55.51,3.7,2.25,4.21,2.25h39.01v9.8H5.53c-1.91,0-5.17,4.27-5.43,6.43-.72,5.96,2.7,9.59,8.52,10.09,14.48,1.24,30.76-.92,45.42-.08,13.88-4.99,27.34-11.33,41.1-16.74,5.22-1.39,14.39,1.04,19.04-.05,3.39-.79,21.69-8.24,24.57-10.05,1.77-1.11,2.78-3.31,2.94-5.36.08-1.07-.03-5.56-.24-6.46ZM89.01,40.94l-26.9,11.59V17.44l26.36,10.56c1.26,1.23.07,10.6.54,12.93ZM111.96,40.14h-14.21v-11.87c3.6.47,8.76-.64,12.14,0,2.35.44,10.05,4.52,12.81,5.78.6.27,1.26.39,1.91.41l-12.65,5.67Z"/>
</svg>