<svg width="484" height="394" xmlns="http://www.w3.org/2000/svg" xmlns:xlink="http://www.w3.org/1999/xlink" xml:space="preserve" overflow="hidden"><g transform="translate(-3213 -1732)"><path d="M3444.43 2122.5 3655.5 1980.51 3651.95 1858.92 3379.68 1775.5 3237.78 1956.54 3220.93 1984.06 3216.5 2039.97 3444.43 2122.5Z" stroke="#8497B0" stroke-width="4.58333" stroke-miterlimit="8" fill="#0D0D0D" fill-rule="evenodd"/><path d="M3382.37 1811.06 3354.89 1828.87 3324.75 1844 3307.02 1842.22 3295.5 1810.17 3301.7 1771 3316.77 1747.85 3334.5 1734.5 3403.64 1734.5 3481.65 1747.85 3578.27 1780.79 3674 1833.32 3693.5 1870.71C3693.2 1885.54 3692.91 1900.38 3692.61 1915.22L3677.54 1947.27 3659.82 1953.5 3635 1947.27 3612.84 1921.45 3599.54 1894.74 3601.31 1882.28 3551.67 1855.57 3486.08 1829.76 3400.1 1806.61 3382.37 1811.06Z" stroke="#8497B0" stroke-width="4.58333" stroke-miterlimit="8" fill="#0D0D0D" fill-rule="evenodd"/><path d="M3424.39 1852.71 3373.8 1846.5 3327.65 1859.81 3297.47 1889.08 3281.5 1925.45 3285.05 1970.69 3315.22 2000.85 3362.26 2011.5 3420.84 2006.18 3465.21 1986.66 3491.84 1943.19 3494.5 1897.06 3468.76 1866.9 3424.39 1852.71Z" stroke="#172C51" stroke-width="4.58333" stroke-miterlimit="8" fill="none" fill-rule="evenodd"/><path d="M3413.1 1877.72 3378.9 1873.5 3347.7 1882.53 3327.3 1902.4 3316.5 1927.09 3318.9 1957.8 3339.3 1978.27 3371.1 1985.5 3410.7 1981.89 3440.7 1968.64 3458.7 1939.13 3460.5 1907.82 3443.1 1887.35 3413.1 1877.72Z" stroke="#172C51" stroke-width="4.58333" stroke-miterlimit="8" fill="none" fill-rule="evenodd"/><path d="M3396.41 1906.19 3382.63 1904.5 3370.07 1908.13 3361.85 1916.11 3357.5 1926.03 3358.47 1938.37 3366.68 1946.6 3379.49 1949.5 3395.44 1948.05 3407.53 1942.73 3414.78 1930.87 3415.5 1918.29 3408.49 1910.06 3396.41 1906.19Z" stroke="#172C51" stroke-width="4.58333" stroke-miterlimit="8" fill="none" fill-rule="evenodd"/><text fill="#FFFFFF" font-family="Segoe Script,Segoe Script_MSFontService,sans-serif" font-weight="700" font-size="14" transform="matrix(-0.886423 0.462876 -0.462876 -0.886423 3408.76 1990)">0</text><text fill="#FFFFFF" font-family="Segoe Script,Segoe Script_MSFontService,sans-serif" font-weight="700" font-size="14" transform="matrix(0.960156 0.279463 -0.279463 0.960156 3357.84 1999)">1</text><text fill="#FFFFFF" font-family="Segoe Script,Segoe Script_MSFontService,sans-serif" font-weight="700" font-size="14" transform="matrix(0.960156 0.279463 -0.279463 0.960156 3314.82 1984)">2</text><text fill="#FFFFFF" font-family="Segoe Script,Segoe Script_MSFontService,sans-serif" font-weight="700" font-size="14" transform="matrix(0.960156 0.279463 -0.279463 0.960156 3292.85 1954)">3</text><text fill="#FFFFFF" font-family="Segoe Script,Segoe Script_MSFontService,sans-serif" font-weight="700" font-size="14" transform="matrix(0.960156 0.279463 -0.279463 0.960156 3292.85 1925)">4</text><text fill="#FFFFFF" font-family="Segoe Script,Segoe Script_MSFontService,sans-serif" font-weight="700" font-size="14" transform="matrix(0.960156 0.279463 -0.279463 0.960156 3311.92 1894)">5</text><text fill="#FFFFFF" font-family="Segoe Script,Segoe Script_MSFontService,sans-serif" font-weight="700" font-size="14" transform="matrix(0.960156 0.279463 -0.279463 0.960156 3351.39 1870)">6</text><text fill="#FFFFFF" font-family="Segoe Script,Segoe Script_MSFontService,sans-serif" font-weight="700" font-size="14" transform="matrix(0.960156 0.279463 -0.279463 0.960156 3395.75 1865)">7</text><path d="M3329.21 1841.68 3224.5 1980.84 3440.14 2061.5 3555.5 1887.77 3368.26 1827.5 3329.21 1841.68Z" stroke="#8497B0" stroke-width="4.58333" stroke-miterlimit="8" fill="none" fill-rule="evenodd"/><text fill="#FFFFFF" font-family="Segoe Script,Segoe Script_MSFontService,sans-serif" font-weight="700" font-size="14" transform="matrix(0.960156 0.279463 -0.279463 0.960156 3437.64 1878)">8</text><text fill="#FFFFFF" font-family="Segoe Script,Segoe Script_MSFontService,sans-serif" font-weight="700" font-size="14" transform="matrix(0.960156 0.279463 -0.279463 0.960156 3464.59 1908)">9</text></g></svg>