<svg width="707" height="511" xmlns="http://www.w3.org/2000/svg" xmlns:xlink="http://www.w3.org/1999/xlink" xml:space="preserve" overflow="hidden"><defs><filter id="fx0" x="-10%" y="-10%" width="120%" height="120%" filterUnits="userSpaceOnUse" primitiveUnits="userSpaceOnUse"><feComponentTransfer color-interpolation-filters="sRGB"><feFuncR type="discrete" tableValues="0 0"/><feFuncG type="discrete" tableValues="0 0"/><feFuncB type="discrete" tableValues="0 0"/><feFuncA type="linear" slope="0.4" intercept="0"/></feComponentTransfer><feGaussianBlur stdDeviation="1.53361 1.53361"/></filter><clipPath id="clip1"><rect x="53" y="49" width="269" height="215"/></clipPath></defs><g transform="translate(-3213 -1732)"><path d="M3444.43 2122.5 3655.5 1980.51 3651.95 1858.92 3379.68 1775.5 3237.78 1956.54 3220.93 1984.06 3216.5 2039.97 3444.43 2122.5Z" stroke="#8497B0" stroke-width="4.58333" stroke-miterlimit="8" fill="#0D0D0D" fill-rule="evenodd"/><path d="M3382.37 1811.06 3354.89 1828.87 3324.75 1844 3307.02 1842.22 3295.5 1810.17 3301.7 1771 3316.77 1747.85 3334.5 1734.5 3403.64 1734.5 3481.65 1747.85 3578.27 1780.79 3674 1833.32 3693.5 1870.71C3693.2 1885.54 3692.91 1900.38 3692.61 1915.22L3677.54 1947.27 3659.82 1953.5 3635 1947.27 3612.84 1921.45 3599.54 1894.74 3601.31 1882.28 3551.67 1855.57 3486.08 1829.76 3400.1 1806.61 3382.37 1811.06Z" stroke="#8497B0" stroke-width="4.58333" stroke-miterlimit="8" fill="#0D0D0D" fill-rule="evenodd"/><path d="M3424.39 1852.71 3373.8 1846.5 3327.65 1859.81 3297.47 1889.08 3281.5 1925.45 3285.05 1970.69 3315.22 2000.85 3362.26 2011.5 3420.84 2006.18 3465.21 1986.66 3491.84 1943.19 3494.5 1897.06 3468.76 1866.9 3424.39 1852.71Z" stroke="#172C51" stroke-width="4.58333" stroke-miterlimit="8" fill="none" fill-rule="evenodd"/><path d="M3413.1 1877.72 3378.9 1873.5 3347.7 1882.53 3327.3 1902.4 3316.5 1927.09 3318.9 1957.8 3339.3 1978.27 3371.1 1985.5 3410.7 1981.89 3440.7 1968.64 3458.7 1939.13 3460.5 1907.82 3443.1 1887.35 3413.1 1877.72Z" stroke="#172C51" stroke-width="4.58333" stroke-miterlimit="8" fill="none" fill-rule="evenodd"/><path d="M3396.41 1906.19 3382.63 1904.5 3370.07 1908.13 3361.85 1916.11 3357.5 1926.03 3358.47 1938.37 3366.68 1946.6 3379.49 1949.5 3395.44 1948.05 3407.53 1942.73 3414.78 1930.87 3415.5 1918.29 3408.49 1910.06 3396.41 1906.19Z" stroke="#172C51" stroke-width="4.58333" stroke-miterlimit="8" fill="none" fill-rule="evenodd"/><text fill="#FFFFFF" font-family="Segoe Script,Segoe Script_MSFontService,sans-serif" font-weight="700" font-size="14" transform="matrix(-0.886423 0.462876 -0.462876 -0.886423 3408.76 1990)">0</text><text fill="#FFFFFF" font-family="Segoe Script,Segoe Script_MSFontService,sans-serif" font-weight="700" font-size="14" transform="matrix(0.960156 0.279463 -0.279463 0.960156 3357.84 1999)">1</text><text fill="#FFFFFF" font-family="Segoe Script,Segoe Script_MSFontService,sans-serif" font-weight="700" font-size="14" transform="matrix(0.960156 0.279463 -0.279463 0.960156 3314.82 1984)">2</text><text fill="#FFFFFF" font-family="Segoe Script,Segoe Script_MSFontService,sans-serif" font-weight="700" font-size="14" transform="matrix(0.960156 0.279463 -0.279463 0.960156 3292.85 1954)">3</text><text fill="#FFFFFF" font-family="Segoe Script,Segoe Script_MSFontService,sans-serif" font-weight="700" font-size="14" transform="matrix(0.960156 0.279463 -0.279463 0.960156 3292.85 1925)">4</text><text fill="#FFFFFF" font-family="Segoe Script,Segoe Script_MSFontService,sans-serif" font-weight="700" font-size="14" transform="matrix(0.960156 0.279463 -0.279463 0.960156 3311.92 1894)">5</text><text fill="#FFFFFF" font-family="Segoe Script,Segoe Script_MSFontService,sans-serif" font-weight="700" font-size="14" transform="matrix(0.960156 0.279463 -0.279463 0.960156 3351.39 1870)">6</text><text fill="#FFFFFF" font-family="Segoe Script,Segoe Script_MSFontService,sans-serif" font-weight="700" font-size="14" transform="matrix(0.960156 0.279463 -0.279463 0.960156 3395.75 1865)">7</text><path d="M3329.21 1841.68 3224.5 1980.84 3440.14 2061.5 3555.5 1887.77 3368.26 1827.5 3329.21 1841.68Z" stroke="#8497B0" stroke-width="4.58333" stroke-miterlimit="8" fill="none" fill-rule="evenodd"/><text fill="#FFFFFF" font-family="Segoe Script,Segoe Script_MSFontService,sans-serif" font-weight="700" font-size="14" transform="matrix(0.960156 0.279463 -0.279463 0.960156 3437.64 1878)">8</text><text fill="#FFFFFF" font-family="Segoe Script,Segoe Script_MSFontService,sans-serif" font-weight="700" font-size="14" transform="matrix(0.960156 0.279463 -0.279463 0.960156 3464.59 1908)">9</text><g clip-path="url(#clip1)" filter="url(#fx0)" transform="translate(3386 1928)"><g><path d="M45.4834-5.83496 49.4385-5.83496C51.7008-5.83496 52.832-5.06185 52.832-3.51562 52.832-2.40885 52.4373-1.54622 51.6479-0.927734 50.8586-0.309245 49.7477 0 48.3154 0L43.6768 0C41.984 0 40.6779-0.354004 39.7583-1.06201 38.8387-1.77002 38.3789-2.7832 38.3789-4.10156 38.3789-4.94792 38.7207-6.1849 39.4043-7.8125L45.6787-22.5098 40.9668-17.4561C39.8437-16.2353 38.7777-15.625 37.7686-15.625 36.4502-15.625 35.5957-16.5283 35.2051-18.335L34.5215-21.3623 28.5645-6.66504C26.5137-1.61947 24.9512 1.81071 23.877 3.62549 22.8027 5.44027 21.4111 7.01497 19.7021 8.34961 17.2282 10.2702 14.388 11.2305 11.1816 11.2305 7.76367 11.2305 4.98861 10.1522 2.85645 7.9956 0.724284 5.83903-0.341797 3.02734-0.341797-0.439453-0.341797-4.98047 1.33464-8.97624 4.6875-12.4268 6.49414-14.2659 8.74837-15.7511 11.4502-16.8823 14.152-18.0135 16.8131-18.5791 19.4336-18.5791 20.7682-18.5791 21.8343-18.2943 22.6318-17.7246 23.4294-17.1549 23.8281-16.3981 23.8281-15.4541 23.8281-14.4613 23.4049-13.6556 22.5586-13.0371 22.0703-12.679 21.1263-12.4349 19.7266-12.3047 16.4876-12.0117 13.8753-11.2712 11.8896-10.083 10.2458-9.09017 8.93962-7.79622 7.97119-6.20117 7.00277-4.60612 6.51855-2.93783 6.51855-1.19629 6.51855 0.65918 6.99056 2.11995 7.93457 3.18603 8.87858 4.25212 10.1725 4.78516 11.8164 4.78516 13.7858 4.78516 15.4989 3.94287 16.9556 2.2583 18.4123 0.57373 20.0114-2.40072 21.7529-6.66504L31.4453-30.5176C32.2917-32.6172 33.431-33.667 34.8633-33.667 35.7747-33.667 36.4949-33.374 37.0239-32.7881 37.5529-32.2021 38.0127-31.1768 38.4033-29.7119L39.8926-24.0967 47.2168-31.2988C48.8281-32.8776 50.3337-33.667 51.7334-33.667 52.71-33.667 53.536-33.3699 54.2114-32.7759 54.8869-32.1818 55.2246-31.4616 55.2246-30.6152 55.2246-30.0781 55.0944-29.4922 54.834-28.8574L54.2725-27.4902ZM62.0085-7.15332C62.0085-5.93262 62.9281-5.32226 64.7673-5.32227L72.0182-5.32227C74.069-5.32226 75.0944-4.59798 75.0944-3.14941 75.0944-2.15658 74.7323-1.38346 74.008-0.830078 73.2837-0.276693 72.2705 0 70.9684 0L64.0592 0C61.4876 0 59.5304-0.634766 58.1877-1.9043 56.8449-3.17383 56.1735-5.0293 56.1735-7.4707 56.1735-10.612 57.2355-13.3219 59.3595-15.6006 61.4836-17.8792 64.0104-19.0186 66.9401-19.0186 69.0723-19.0186 70.7853-18.4611 72.0793-17.3462 73.3732-16.2313 74.0202-14.7624 74.0202-12.9395 74.0202-10.7422 73.125-9.11458 71.3346-8.05664 70.3418-7.45443 68.8607-7.15332 66.8913-7.15332ZM63.1803-11.5967 65.8659-11.5967C67.6074-11.5967 68.4538-11.9792 68.4049-12.7441 68.3561-13.6068 67.7946-14.0381 66.7204-14.0381 65.223-14.0381 64.043-13.2243 63.1803-11.5967ZM82.0605-7.15332C82.0605-5.93262 82.9801-5.32226 84.8193-5.32227L92.0703-5.32227C94.1211-5.32226 95.1465-4.59798 95.1465-3.14941 95.1465-2.15658 94.7843-1.38346 94.0601-0.830078 93.3358-0.276693 92.3226 0 91.0205 0L84.1113 0C81.5397 0 79.5825-0.634766 78.2397-1.9043 76.897-3.17383 76.2256-5.0293 76.2256-7.4707 76.2256-10.612 77.2876-13.3219 79.4116-15.6006 81.5356-17.8792 84.0625-19.0186 86.9922-19.0186 89.1243-19.0186 90.8374-18.4611 92.1313-17.3462 93.4253-16.2313 94.0723-14.7624 94.0723-12.9395 94.0723-10.7422 93.1771-9.11458 91.3867-8.05664 90.3939-7.45443 88.9128-7.15332 86.9434-7.15332ZM83.2324-11.5967 85.918-11.5967C87.6595-11.5967 88.5059-11.9792 88.457-12.7441 88.4082-13.6068 87.8467-14.0381 86.7725-14.0381 85.2751-14.0381 84.095-13.2243 83.2324-11.5967ZM108.46-18.6768 109.217-18.6768C111.284-18.6768 112.318-17.9525 112.318-16.5039 112.318-15.5111 111.951-14.738 111.219-14.1846 110.487-13.6312 109.478-13.3545 108.192-13.3545L106.41-13.3545 103.138-5.32227 105.872-5.32227C107.939-5.32226 108.973-4.59798 108.973-3.14941 108.973-2.15658 108.611-1.38346 107.887-0.830078 107.162-0.276693 106.149 0 104.847 0L100.477 0C99.2399 0 98.2593-0.284831 97.535-0.854492 96.8107-1.42415 96.4486-2.19727 96.4486-3.17383 96.4486-3.77604 96.595-4.44336 96.888-5.17578L97.3519-6.25 100.233-13.3545 99.8665-13.3545C98.0436-13.3545 97.1322-14.0625 97.1322-15.4785 97.1322-16.4876 97.4943-17.2729 98.2186-17.8345 98.9429-18.396 99.956-18.6768 101.258-18.6768L102.381-18.6768 103.675-21.875 103.944-22.5342C104.709-24.3408 105.913-25.2441 107.557-25.2441 108.224-25.2441 108.798-25.0203 109.278-24.5728 109.758-24.1252 109.998-23.584 109.998-22.9492 109.998-22.3307 109.787-21.5495 109.364-20.6055ZM158.519-27.4902 150.072-6.66504C148.021-1.61947 146.458 1.81071 145.384 3.62549 144.31 5.44027 142.926 7.01497 141.234 8.34961 138.743 10.2702 135.895 11.2305 132.689 11.2305 129.255 11.2305 126.467 10.1522 124.327 7.9956 122.187 5.83903 121.117 3.02734 121.117-0.439453 121.117-5.01302 122.801-9.01693 126.17-12.4512 127.977-14.2904 130.239-15.7715 132.957-16.8945 135.675-18.0176 138.361-18.5791 141.014-18.5791 142.284-18.5791 143.313-18.2902 144.102-17.7124 144.892-17.1346 145.286-16.3818 145.286-15.4541 145.286-14.445 144.863-13.6393 144.017-13.0371 143.545-12.6953 142.601-12.4512 141.185-12.3047 137.93-12.0117 135.317-11.2712 133.348-10.083 131.688-9.07389 130.378-7.77181 129.417-6.17676 128.457-4.58171 127.977-2.89714 127.977-1.12305 127.977 0.69987 128.457 2.1403 129.417 3.19824 130.378 4.25618 131.68 4.78516 133.324 4.78516 135.277 4.78516 136.986 3.9388 138.451 2.24609 139.915 0.553385 141.51-2.41699 143.236-6.66504L151.683-27.4902 146.922-27.4902C144.676-27.4902 143.553-28.2878 143.553-29.8828 143.553-30.957 143.952-31.7993 144.749-32.4097 145.547-33.02 146.654-33.3252 148.07-33.3252L164.11-33.3252 164.744-33.3252 166.453-32.9346C167.137-32.5602 167.479-31.8929 167.479-30.9326 167.479-29.8584 167.08-29.0161 166.283-28.4058 165.485-27.7954 164.378-27.4902 162.962-27.4902ZM173.309-17.627C175.018-18.5547 176.426-19.0186 177.533-19.0186 179.095-19.0186 180.377-18.5832 181.378-17.7124 182.379-16.8416 182.879-15.7308 182.879-14.3799 182.879-13.5661 182.684-12.679 182.293-11.7187L179.73-5.32227 182.537-5.32227C184.588-5.32226 185.614-4.59798 185.614-3.14941 185.614-2.15658 185.251-1.38346 184.527-0.830078 183.803-0.276693 182.79 0 181.488 0L176.58 0C175.539 0 174.664-0.297038 173.956-0.891113 173.248-1.48519 172.894-2.21354 172.894-3.07617 172.894-3.66211 173.081-4.41081 173.455-5.32227L175.701-10.8398C175.978-11.5397 176.117-12.0687 176.117-12.4268 176.117-13.3545 175.498-13.8184 174.261-13.8184 172.601-13.8184 171.201-12.4023 170.062-9.57031L167.327-2.85645C166.465-0.724284 165.187 0.341797 163.494 0.341797 162.827 0.341797 162.257 0.130208 161.785-0.292969 161.313-0.716146 161.077-1.22884 161.077-1.83105 161.077-2.28678 161.2-2.82389 161.444-3.44238L161.712-4.10156 172.332-30.2978C173.26-32.5439 174.53-33.667 176.141-33.667 176.808-33.667 177.382-33.4432 177.862-32.9956 178.342-32.548 178.582-32.0068 178.582-31.3721 178.582-30.8512 178.371-30.0781 177.948-29.0527ZM192.633-7.15332C192.633-5.93262 193.553-5.32226 195.392-5.32227L202.643-5.32227C204.694-5.32226 205.719-4.59798 205.719-3.14941 205.719-2.15658 205.357-1.38346 204.633-0.830078 203.909-0.276693 202.895 0 201.593 0L194.684 0C192.113 0 190.155-0.634766 188.813-1.9043 187.47-3.17383 186.798-5.0293 186.798-7.4707 186.798-10.612 187.861-13.3219 189.985-15.6006 192.109-17.8792 194.635-19.0186 197.565-19.0186 199.697-19.0186 201.41-18.4611 202.704-17.3462 203.998-16.2313 204.645-14.7624 204.645-12.9395 204.645-10.7422 203.75-9.11458 201.96-8.05664 200.967-7.45443 199.486-7.15332 197.516-7.15332ZM193.805-11.5967 196.491-11.5967C198.232-11.5967 199.079-11.9792 199.03-12.7441 198.981-13.6068 198.42-14.0381 197.345-14.0381 195.848-14.0381 194.668-13.2243 193.805-11.5967ZM231.833-16.6748C229.635-12.7686 228.537-9.14713 228.537-5.81055 228.537-3.43424 229.078-1.7334 230.16-0.708008 231.243 0.317383 233.045 0.830078 235.568 0.830078L249.142 0.830078C251.388 0.830078 252.511 1.59505 252.511 3.125 252.511 4.23177 252.117 5.09847 251.327 5.7251 250.538 6.35172 249.427 6.66504 247.995 6.66504L233.835 6.66504C231.475 6.66504 229.587 6.33952 228.171 5.68848 226.201 4.77702 224.655 3.37321 223.532 1.47705 222.409-0.419108 221.847-2.57975 221.847-5.00488 221.847-8.26009 222.84-12.1501 224.826-16.6748L223.459-16.6748 222.824-16.6748C221.001-16.6748 220.09-17.4561 220.09-19.0186 220.09-19.9951 220.464-20.8211 221.213-21.4966 221.961-22.172 222.873-22.5098 223.947-22.5098L224.606-22.5098 228.146-22.5098C229.611-24.9512 231.58-27.3031 234.054-29.5654 237.212-32.4137 240.622-33.8379 244.284-33.8379 246.693-33.8379 248.687-33.0973 250.265-31.6162 251.844-30.1351 252.633-28.2471 252.633-25.9521 252.633-22.6807 251.112-20.1742 248.068-18.4326 246.001-17.2607 242.713-16.6748 238.205-16.6748ZM235.47-22.5098 240.207-22.5098C244.259-22.5098 246.286-23.5921 246.286-25.7568 246.286-26.4404 246.021-26.9979 245.492-27.4292 244.963-27.8605 244.292-28.0762 243.478-28.0762 242.225-28.0762 240.874-27.5716 239.425-26.5625 237.977-25.5534 236.659-24.2025 235.47-22.5098ZM254.753-13.3301 253.923-11.2793C253.174-9.45638 252.197-8.54492 250.993-8.54492 250.26-8.54492 249.65-8.76465 249.162-9.2041 248.673-9.64355 248.429-10.1888 248.429-10.8398 248.429-11.2142 248.608-11.849 248.966-12.7441L251.725-19.5557C252.393-21.1995 253.337-22.0215 254.557-22.0215 255.762-22.0215 256.502-21.4518 256.779-20.3125L256.974-19.5557C257.072-19.165 257.218-18.9209 257.414-18.8232 257.609-18.7256 258.089-18.6768 258.854-18.6768L264.567-18.6768C266.699-18.6768 267.765-17.9281 267.765-16.4307 267.765-14.3636 266.414-13.3301 263.713-13.3301L263.444-13.0859C260.856-10.612 259.562-8.69954 259.562-7.34863 259.562-5.99772 260.311-5.32226 261.808-5.32227L264.884-5.32227C266.951-5.32226 267.985-4.60612 267.985-3.17383 267.985-2.16471 267.623-1.38346 266.899-0.830078 266.174-0.276693 265.161 0 263.859 0L259.074 0C257.446 0 256.116-0.561523 255.082-1.68457 254.049-2.80762 253.532-4.26432 253.532-6.05469 253.532-7.19401 253.809-8.30078 254.362-9.375 254.915-10.4492 255.892-11.7676 257.292-13.3301ZM275.133-7.15332C275.133-5.93262 276.053-5.32226 277.892-5.32227L285.143-5.32227C287.194-5.32226 288.219-4.59798 288.219-3.14941 288.219-2.15658 287.857-1.38346 287.133-0.830078 286.409-0.276693 285.395 0 284.093 0L277.184 0C274.613 0 272.655-0.634766 271.313-1.9043 269.97-3.17383 269.298-5.0293 269.298-7.4707 269.298-10.612 270.361-13.3219 272.485-15.6006 274.609-17.8792 277.135-19.0186 280.065-19.0186 282.197-19.0186 283.91-18.4611 285.204-17.3462 286.498-16.2313 287.145-14.7624 287.145-12.9395 287.145-10.7422 286.25-9.11458 284.46-8.05664 283.467-7.45443 281.986-7.15332 280.016-7.15332ZM276.305-11.5967 278.991-11.5967C280.732-11.5967 281.579-11.9792 281.53-12.7441 281.481-13.6068 280.92-14.0381 279.845-14.0381 278.348-14.0381 277.168-13.2243 276.305-11.5967ZM307.148-9.08203 312.886-16.5527 313.35-17.1387C314.31-18.3919 315.368-19.0186 316.523-19.0186 317.256-19.0186 317.858-18.7785 318.33-18.2983 318.802-17.8182 319.038-17.2119 319.038-16.4795 319.038-15.7145 318.542-14.7054 317.549-13.4521L308.394-1.92871C307.189-0.415039 305.944 0.341797 304.658 0.341797 303.6 0.341797 302.705-0.0569662 301.973-0.854492 301.24-1.65202 300.874-2.62858 300.874-3.78418 300.874-4.07715 300.898-4.37825 300.947-4.6875L301.753-9.08203 296.772-1.92871C295.731-0.415039 294.575 0.341797 293.306 0.341797 292.215 0.341797 291.32-0.0813802 290.62-0.927734 289.92-1.77409 289.57-2.86458 289.57-4.19922 289.57-4.39453 289.578-4.55729 289.595-4.6875L290.278-14.917C290.376-16.2353 290.722-17.2485 291.316-17.9565 291.91-18.6645 292.72-19.0186 293.745-19.0186 295.275-19.0186 296.04-18.1803 296.04-16.5039 296.04-16.2272 296.024-15.918 295.991-15.5762L295.308-8.74023 300.752-16.5283C301.908-18.1885 303.25-19.0186 304.78-19.0186 305.724-19.0186 306.473-18.75 307.026-18.2129 307.58-17.6758 307.856-16.9515 307.856-16.04 307.856-15.6657 307.848-15.389 307.832-15.21Z" fill="#FFFFFF" transform="matrix(0.818617 -0.574339 0.574339 0.818617 63.4763 252)"/></g></g><text fill="#FFFFFF" font-family="Harlow Solid Italic,Harlow Solid Italic_MSFontService,sans-serif" font-style="italic" font-weight="400" font-stretch="semi-expanded" font-size="50" transform="matrix(0.818617 -0.574339 0.574339 0.818617 3446 2179)">Meet The Crew</text></g></svg>